#usda 1.0
(
    customLayerData = {
        string creator = "MuJoCo USD Converter v0.2.0"
    }
    defaultPrim = "piper_l_description"
    kilogramsPerUnit = 1
    metersPerUnit = 1
    upAxis = "Z"
)

def Xform "piper_l_description" (
    prepend apiSchemas = ["GeomModelAPI"]
    assetInfo = {
        string name = "piper_l_description"
    }
    kind = "component"
    prepend payload = @./Payload/Contents.usda@
)
{
    float3[] extentsHint = [(-0.37508377, -0.08226095, -0.038349785), (0.2409369, 0.08174995, 0.24367598), (3.4028235e38, 3.4028235e38, 3.4028235e38), (-3.4028235e38, -3.4028235e38, -3.4028235e38), (3.4028235e38, 3.4028235e38, 3.4028235e38), (-3.4028235e38, -3.4028235e38, -3.4028235e38), (-0.3770305, -0.08218499, 0.07766165), (0.21699397, 0.08181794, 0.23095898)]
}

def PhysicsScene "PhysicsScene" (
    prepend payload = @./Payload/Contents.usda@</PhysicsScene>
)
{
}

