#usda 1.0
(
    customLayerData = {
        string creator = "MuJoCo USD Converter v0.2.0"
    }
    defaultPrim = "hyqreal2_description"
    kilogramsPerUnit = 1
    metersPerUnit = 1
    upAxis = "Z"
)

def Xform "hyqreal2_description" (
    prepend apiSchemas = ["GeomModelAPI"]
    assetInfo = {
        string name = "hyqreal2_description"
    }
    kind = "component"
    prepend payload = @./Payload/Contents.usda@
)
{
    float3[] extentsHint = [(-0.56257707, -0.34783852, -0.77270544), (0.65517807, 0.3442869, 0.2000931), (3.4028235e38, 3.4028235e38, 3.4028235e38), (-3.4028235e38, -3.4028235e38, -3.4028235e38), (3.4028235e38, 3.4028235e38, 3.4028235e38), (-3.4028235e38, -3.4028235e38, -3.4028235e38), (-0.58, -0.3365, -0.775), (0.58, 0.3365, 0.21)]
}

def PhysicsScene "PhysicsScene" (
    prepend payload = @./Payload/Contents.usda@</PhysicsScene>
)
{
}

