#usda 1.0
(
    customLayerData = {
        string creator = "MuJoCo USD Converter v0.2.0"
    }
    defaultPrim = "b2_description"
    kilogramsPerUnit = 1
    metersPerUnit = 1
    upAxis = "Z"
)

def Xform "b2_description" (
    prepend apiSchemas = ["GeomModelAPI"]
    assetInfo = {
        string name = "b2_description"
    }
    kind = "component"
    prepend payload = @./Payload/Contents.usda@
)
{
    float3[] extentsHint = [(-0.42337, -0.229101, 0.06491001), (0.43099, 0.229101, 0.922086), (3.4028235e38, 3.4028235e38, 3.4028235e38), (-3.4028235e38, -3.4028235e38, -3.4028235e38), (3.4028235e38, 3.4028235e38, 3.4028235e38), (-3.4028235e38, -3.4028235e38, -3.4028235e38), (-0.4175, -0.22355603, 0.067999996), (0.43, 0.22373, 0.875)]
}

def PhysicsScene "PhysicsScene" (
    prepend payload = @./Payload/Contents.usda@</PhysicsScene>
)
{
}

